# xmcd CD database file
#
# Track frame offsets:
#	225
#	32839
#	64764
#	93773
#	119598
#	154280
#	185115
#	222611
#	254215
#
# Disc length: 3993 seconds
#
# Revision: 1
# Processed by: cddbd v1.5PL3 Copyright (c) Steve Scherf et al.
# Submitted via: CDex 1.50Beta5
#
DISCID=8f0f9609
DTITLE=AA.VV. - Nuova Era n.35
DYEAR=1998
DGENRE=New Age
TTITLE0=Frank Steiner Jr. - Sun
TTITLE1=Prem Joshua - Mango Rain
TTITLE2=Riley Lee - Stairway of waterfalls part.I
TTITLE3=David Antony Clark - Morning the rains came
TTITLE4=Niggli and Simona  - Don de l'ocean
TTITLE5=Frederick Rousseau - Ice tree
TTITLE6=David and Steven Gordon - 3rd Movement - Swords
TTITLE7=Marco Milone - Harth
TTITLE8=Stephen Bacchus - The returning
EXTD=YEAR: 1998
EXTT0=
EXTT1=
EXTT2=
EXTT3=
EXTT4=
EXTT5=
EXTT6=
EXTT7=
EXTT8=
PLAYORDER=
